# xmcd
#
# Track frame offsets:
#	150
#	14017
#	30174
#	46799
#	68073
#	84003
#	98300
#	113806
#	127046
#	151481
#	167691
#	193307
#	214430
#	232103
#	250858
#	267068
#	277003
#	294620
#	310569
#	325809
#
# Disc length: 4532 seconds
#
# Revision: 0
# Processed by: cddbd v1.5.2PL0 Copyright (c) Steve Scherf et al.
# Submitted via: dBpowerAMP V4.0
#
DISCID=1111b214
DTITLE=irvin blais - irvin blais
DYEAR=1900
DGENRE=
TTITLE0=irvin blais
TTITLE1=irvin blais
TTITLE2=irvin blais
TTITLE3=irvin blais
TTITLE4=irvin blais
TTITLE5=irvin blais
TTITLE6=irvin blais
TTITLE7=irvin blais
TTITLE8=irvin blais
TTITLE9=irvin blais
TTITLE10=irvin blais
TTITLE11=irvin blais
TTITLE12=irvin blais
TTITLE13=irvin blais
TTITLE14=irvin blais
TTITLE15=irvin blais
TTITLE16=irvin blais
TTITLE17=irvin blais
TTITLE18=irvin blais
TTITLE19=irvin blais
EXTD=
EXTT0=
EXTT1=
EXTT2=
EXTT3=
EXTT4=
EXTT5=
EXTT6=
EXTT7=
EXTT8=
EXTT9=
EXTT10=
EXTT11=
EXTT12=
EXTT13=
EXTT14=
EXTT15=
EXTT16=
EXTT17=
EXTT18=
EXTT19=
PLAYORDER=
